<svg xmlns="http://www.w3.org/2000/svg" viewBox="0 0 255.75 128.86"><defs><style>.cls-1{fill:#fff;}.cls-2{fill:#231f20;}</style></defs><title>Elevate Logo_1</title><g id="Layer_2" data-name="Layer 2"><g id="Content"><polygon class="cls-1" points="64.52 128.86 37.22 128.86 37.22 89.03 47.06 89.03 47.06 119.03 64.52 119.03 64.52 128.86"/><polygon class="cls-1" points="27.3 98.94 27.3 89.11 0 89.11 0 128.86 27.3 128.86 27.3 119.03 9.83 119.03 9.83 113.9 23.53 113.9 23.53 104.07 9.83 104.07 9.83 98.94 27.3 98.94"/><polygon class="cls-1" points="217.55 89.11 207.04 89.11 207.04 89.1 197.21 89.1 197.21 89.11 186.7 89.11 186.7 98.94 197.21 98.94 197.21 128.71 207.04 128.71 207.04 98.94 217.55 98.94 217.55 89.11"/><polygon class="cls-1" points="102.74 98.94 102.74 89.11 75.44 89.11 75.44 128.86 102.74 128.86 102.74 119.03 85.27 119.03 85.27 113.9 98.97 113.9 98.97 104.07 85.27 104.07 85.27 98.94 102.74 98.94"/><polygon class="cls-1" points="255.75 98.94 255.75 89.11 228.45 89.11 228.45 128.86 255.75 128.86 255.75 119.03 238.28 119.03 238.28 113.9 251.98 113.9 251.98 104.07 238.28 104.07 238.28 98.94 255.75 98.94"/><polygon class="cls-1" points="137.56 89.1 129.38 106.52 120.34 89.1 109.26 89.1 129.82 128.71 148.42 89.1 137.56 89.1"/><polygon class="cls-1" points="157.98 128.71 166.16 111.29 175.2 128.71 186.28 128.71 165.72 89.1 147.11 128.71 157.98 128.71"/><polygon class="cls-1" points="142.35 12.63 142.22 0 113.5 0 113.38 19.19 98.5 19.19 98.5 65.49 157.25 65.49 157.25 12.63 142.35 12.63"/><polygon class="cls-2" points="117.83 28.69 108 28.69 108 55.99 147.75 55.99 147.75 22.13 137.92 22.13 137.92 46.16 132.79 46.16 132.79 9.5 122.96 9.5 122.96 46.16 117.83 46.16 117.83 28.69"/></g></g></svg>