<svg xmlns="http://www.w3.org/2000/svg" viewBox="0 0 35 35"><defs><style>.cls-1{fill:#929497;}.cls-2{fill:#fff;}</style></defs><title>Good Indicator</title><g id="Layer_2" data-name="Layer 2"><g id="Content"><rect class="cls-1" width="35" height="35" rx="4" ry="4"/><path class="cls-2" d="M26.14,18.68a3.47,3.47,0,0,0,.59-2,3.12,3.12,0,0,0-3.08-3.07H21.54a5.28,5.28,0,0,0,.58-2.31,5,5,0,0,0-.42-2.24,2.64,2.64,0,0,0-1.23-1.22,4.11,4.11,0,0,0-1.81-.39,1.52,1.52,0,0,0-1.08.44,2.89,2.89,0,0,0-.75,1.3q-.23.79-.37,1.52a2,2,0,0,1-.43,1q-.59.64-1.29,1.54a10.63,10.63,0,0,1-1.65,1.86H9.81a1.54,1.54,0,0,0-1.54,1.54v7.69A1.54,1.54,0,0,0,9.81,26h3.46a8.89,8.89,0,0,1,1.66.48q1.48.52,2.6.79a9.7,9.7,0,0,0,2.28.27h1.55a3.83,3.83,0,0,0,2.73-1,3.4,3.4,0,0,0,1-2.64,3.38,3.38,0,0,0,.72-2.14,3.64,3.64,0,0,0,0-.52,3.45,3.45,0,0,0,.46-1.73A3.14,3.14,0,0,0,26.14,18.68Zm-15,5.52a.75.75,0,1,1,.23-.54A.74.74,0,0,1,11.12,24.19ZM24.93,17.7q-.26.55-.64.56a1.62,1.62,0,0,1,.3.57,2.16,2.16,0,0,1,.12.67,1.9,1.9,0,0,1-.64,1.43,1.66,1.66,0,0,1,.22.83,2,2,0,0,1-.21.88,1.34,1.34,0,0,1-.57.63,4.11,4.11,0,0,1,.06.67q0,2-2.31,2H19.81a13.28,13.28,0,0,1-4.11-.88L15.35,25l-.43-.15-.42-.14L14,24.54l-.4-.08-.38,0h-.38V16.73h.38a1,1,0,0,0,.43-.11,2,2,0,0,0,.48-.32l.46-.43a6.84,6.84,0,0,0,.48-.53l.41-.51.38-.49.28-.36q.66-.82.93-1.09a3.05,3.05,0,0,0,.72-1.32q.22-.8.37-1.51a2,2,0,0,1,.46-1,1.75,1.75,0,0,1,1.54.56,3.14,3.14,0,0,1,.38,1.74A4.91,4.91,0,0,1,20,13.28a4.9,4.9,0,0,0-.58,1.92h4.23a1.48,1.48,0,0,1,1.07.46,1.47,1.47,0,0,1,.47,1.08A2.36,2.36,0,0,1,24.93,17.7Z"/></g></g></svg>