<svg xmlns="http://www.w3.org/2000/svg" viewBox="0 0 83.34 100"><defs><style>.cls-1{fill:#67696b;}</style></defs><title>information</title><g id="Layer_2" data-name="Layer 2"><g id="Content"><path class="cls-1" d="M66.68,0h-50A16.69,16.69,0,0,0,0,16.67V58.34A16.69,16.69,0,0,0,16.67,75h12.5l0,18a7,7,0,0,0,4.33,6.48,6.85,6.85,0,0,0,2.62.52,7.41,7.41,0,0,0,5.28-2.34L60.13,75h6.54A16.69,16.69,0,0,0,83.34,58.34V16.67A16.69,16.69,0,0,0,66.68,0ZM75,58.34a8.35,8.35,0,0,1-8.33,8.33H59.52A7.15,7.15,0,0,0,54.29,69L37.52,89.33V73.69a7,7,0,0,0-7-7H16.67a8.34,8.34,0,0,1-8.33-8.33V16.67a8.34,8.34,0,0,1,8.33-8.33h50A8.35,8.35,0,0,1,75,16.67Z"/><rect class="cls-1" x="37.73" y="28.2" width="7.89" height="28.92"/><path class="cls-1" d="M41.68,16.88q-4.29,0-4.29,3.85t4.29,3.88a4.51,4.51,0,0,0,3.22-1A3.76,3.76,0,0,0,46,20.73Q46,16.88,41.68,16.88Z"/></g></g></svg>