<svg xmlns="http://www.w3.org/2000/svg" viewBox="0 0 137.66 83.46"><defs><style>.cls-1{fill:#8dc641;}</style></defs><title>Elder</title><g id="Layer_2" data-name="Layer 2"><g id="Content"><path class="cls-1" d="M36.57,63.28A94.5,94.5,0,0,1,12.16,41.39a121.48,121.48,0,0,1,15.18-14.1c9.75-7.58,24.84-16.61,41.38-16.61A63,63,0,0,1,91.59,15,5.34,5.34,0,0,0,95.45,5,73.61,73.61,0,0,0,68.73,0,66.45,66.45,0,0,0,41.85,6,101.66,101.66,0,0,0,20.58,19,124.33,124.33,0,0,0,1.15,37.82a5.34,5.34,0,0,0-.27,6.24A103.06,103.06,0,0,0,31,72.42a5.34,5.34,0,0,0,5.53-9.14Z"/><path class="cls-1" d="M136.81,38.24a94.43,94.43,0,0,0-21.19-21.87,5.34,5.34,0,0,0-6.41,8.54,89,89,0,0,1,16.5,16.22c-6.49,8.34-27.27,31.67-56.89,31.67a57.22,57.22,0,0,1-11.75-1.23A5.34,5.34,0,1,0,54.88,82a67.92,67.92,0,0,0,13.95,1.46c17.29,0,34.54-6.83,49.88-19.75a101.47,101.47,0,0,0,18.08-19.65A5.34,5.34,0,0,0,136.81,38.24Z"/><path class="cls-1" d="M50.64,43A17.84,17.84,0,1,0,68.49,25.19,17.86,17.86,0,0,0,50.64,43Zm25,0a7.16,7.16,0,1,1-7.16-7.16A7.17,7.17,0,0,1,75.65,43Z"/></g></g></svg>