<svg xmlns="http://www.w3.org/2000/svg" viewBox="0 0 100 95.94"><defs><style>.cls-1{fill:#8dc641;}</style></defs><title>FAQ</title><g id="Layer_2" data-name="Layer 2"><g id="Content"><path class="cls-1" d="M82.47,0H17.53A17.55,17.55,0,0,0,0,17.53V57.58A17.55,17.55,0,0,0,17.53,75.12H58.89l19.8,19.8a3.51,3.51,0,0,0,6-2.48V75A17.56,17.56,0,0,0,100,57.58V17.53A17.55,17.55,0,0,0,82.47,0ZM93,57.59A10.53,10.53,0,0,1,82.47,68.1h-1.3a3.51,3.51,0,0,0-3.51,3.51V84L62.82,69.13a3.5,3.5,0,0,0-2.48-1H17.53A10.53,10.53,0,0,1,7,57.59V17.53A10.53,10.53,0,0,1,17.53,7H82.47A10.53,10.53,0,0,1,93,17.53Z"/><path class="cls-1" d="M24.09,48H19.33V25.17H32.39v4H24.09V35h7.73v3.94H24.09Z"/><path class="cls-1" d="M50.8,48l-1.65-5.42H40.84L39.19,48H34l8-22.88h5.91L56,48ZM48,38.48q-2.29-7.37-2.58-8.34T45,28.62q-.51,2-2.95,9.87Z"/><path class="cls-1" d="M79.55,36.53a14.4,14.4,0,0,1-1.43,6.74,8.7,8.7,0,0,1-4.18,4l5.49,6.12H73.24l-4.18-5.11H68.7q-5.24,0-8-3T57.86,36.5q0-5.69,2.81-8.69t8.06-3q5.25,0,8,3T79.55,36.53Zm-16.63,0a9.51,9.51,0,0,0,1.45,5.75,5.07,5.07,0,0,0,4.33,1.93q5.78,0,5.78-7.68t-5.75-7.7a5.1,5.1,0,0,0-4.35,1.94A9.47,9.47,0,0,0,62.92,36.53Z"/></g></g></svg>