<svg xmlns="http://www.w3.org/2000/svg" viewBox="0 0 137.66 101.96"><defs><style>.cls-1{fill:#8dc641;}</style></defs><title>Influencer</title><g id="Layer_2" data-name="Layer 2"><g id="Content"><path class="cls-1" d="M133,38.89h-35L90.65,24.19A4.62,4.62,0,0,0,82,25.53l-3.31,20.4L75.52,65.24,73.08,46.18,67.69,4a4.61,4.61,0,0,0-9-.79L44.92,47.44,40.78,60.71l-2.11-13L35.55,28.5a4.61,4.61,0,0,0-8.77-1.14L19.1,44.63H4.61a4.61,4.61,0,1,0,0,9.23H22.09a4.61,4.61,0,0,0,4.21-2.74l1.29-2.9,1.32-3,.47,2.88L34.8,81.51a4.62,4.62,0,0,0,9,.64L54.72,47l6.5-20.83,2.61,20.42,6.57,51.34a4.62,4.62,0,0,0,4.5,4H75a4.62,4.62,0,0,0,4.56-3.88l8.54-52.58L88.8,41,91,45.38l.1.2a4.62,4.62,0,0,0,4.12,2.54H133a4.61,4.61,0,0,0,0-9.23Z"/></g></g></svg>