<svg xmlns="http://www.w3.org/2000/svg" viewBox="0 0 21.2 20"><defs><style>.cls-1{fill:#fff;}</style></defs><title>Add Friend</title><g id="Layer_2" data-name="Layer 2"><g id="Content"><path class="cls-1" d="M8,8.85A4.42,4.42,0,1,0,3.61,4.42,4.43,4.43,0,0,0,8,8.85ZM8,2.11A2.31,2.31,0,1,1,5.73,4.42,2.31,2.31,0,0,1,8,2.11Z"/><path class="cls-1" d="M.64,19.92A1.06,1.06,0,0,0,2,19.36l1.61-3.74c.88-2,1.84-2.86,3.33-2.86H9.11c1.49,0,2.45.83,3.33,2.86L14,19.36A1.06,1.06,0,1,0,16,18.53l-1.61-3.74c-.77-1.78-2.15-4.14-5.27-4.14H7c-3.12,0-4.5,2.36-5.27,4.14L.09,18.53A1.06,1.06,0,0,0,.64,19.92Z"/><path class="cls-1" d="M14.33,9.9h1.93v1.93a1,1,0,1,0,2,0V9.9H20.2a1,1,0,1,0,0-2H18.26V6a1,1,0,1,0-2,0V7.9H14.33a1,1,0,0,0,0,2Z"/></g></g></svg>