<svg xmlns="http://www.w3.org/2000/svg" viewBox="0 0 27.69 30"><defs><style>.cls-1{fill:#929497;}</style></defs><title>Good Icon</title><g id="Layer_2" data-name="Layer 2"><g id="Content"><path class="cls-1" d="M26.81,16.77a5.21,5.21,0,0,0,.88-2.94,4.68,4.68,0,0,0-4.61-4.6H19.9a7.92,7.92,0,0,0,.87-3.46,7.48,7.48,0,0,0-.63-3.35A4,4,0,0,0,18.3.59,6.16,6.16,0,0,0,15.58,0,2.29,2.29,0,0,0,14,.67a4.34,4.34,0,0,0-1.12,1.95q-.34,1.19-.55,2.28a3.06,3.06,0,0,1-.64,1.54q-.88,1-1.93,2.31a16,16,0,0,1-2.47,2.79H2.31a2.22,2.22,0,0,0-1.63.68A2.22,2.22,0,0,0,0,13.85V25.38A2.22,2.22,0,0,0,.68,27a2.22,2.22,0,0,0,1.63.68H7.5a13.33,13.33,0,0,1,2.49.72q2.22.78,3.9,1.18a14.55,14.55,0,0,0,3.42.41h2.33a5.75,5.75,0,0,0,4.09-1.45,5.11,5.11,0,0,0,1.53-4,5.07,5.07,0,0,0,1.08-3.21,5.45,5.45,0,0,0-.05-.78A5.18,5.18,0,0,0,27,18,4.71,4.71,0,0,0,26.81,16.77ZM4.27,25a1.13,1.13,0,0,1-1.62,0,1.13,1.13,0,0,1,0-1.62,1.13,1.13,0,0,1,1.62,0,1.13,1.13,0,0,1,0,1.62ZM25,15.31q-.39.83-1,.85a2.44,2.44,0,0,1,.45.86,3.24,3.24,0,0,1,.18,1,2.85,2.85,0,0,1-1,2.14A2.49,2.49,0,0,1,24,21.4a3,3,0,0,1-.32,1.33,2,2,0,0,1-.86.95,6.16,6.16,0,0,1,.09,1q0,3-3.46,3H17.31a19.92,19.92,0,0,1-6.17-1.32l-.52-.19L10,26l-.63-.21-.69-.2-.59-.12a3.63,3.63,0,0,0-.57-.05H6.92V13.85H7.5a1.55,1.55,0,0,0,.64-.16,3,3,0,0,0,.72-.49q.37-.32.69-.64a10.26,10.26,0,0,0,.72-.79L10.9,11l.57-.74.41-.54q1-1.23,1.39-1.64a4.58,4.58,0,0,0,1.07-2q.33-1.2.55-2.26a3,3,0,0,1,.69-1.53,2.62,2.62,0,0,1,2.31.85,4.71,4.71,0,0,1,.58,2.61,7.36,7.36,0,0,1-.87,2.89,7.35,7.35,0,0,0-.86,2.88h6.35a2.22,2.22,0,0,1,1.6.69,2.2,2.2,0,0,1,.7,1.61A3.54,3.54,0,0,1,25,15.31Z"/></g></g></svg>