<svg xmlns="http://www.w3.org/2000/svg" viewBox="0 0 61.27 76.59"><title>Good</title><g id="Layer_2" data-name="Layer 2"><g id="Content"><path d="M61.27,7.76a1.46,1.46,0,0,0-.43-1L54.55.43a1.46,1.46,0,0,0-2.07,0,1.51,1.51,0,0,0,0,2.11l3.84,3.88H39.15a1.46,1.46,0,0,0,0,2.93H56.24l-3.6,3.56a1.44,1.44,0,0,0,0,2,1.46,1.46,0,0,0,2.07,0L60.84,8.8A1.47,1.47,0,0,0,61.27,7.76Z"/><path d="M53.32,45.09c-.7-4.18-2.77-6.33-4.39-7.39a9.93,9.93,0,0,0-5-1.56,8.06,8.06,0,0,0-5.81-3.51V18.27a6.87,6.87,0,0,0-6.88-7,7,7,0,0,0-4.89,1.93,6.74,6.74,0,0,0-1.7,2.57,7.13,7.13,0,0,0-4.3-1.4,6.68,6.68,0,0,0-6.89,6.77V40.67a1.27,1.27,0,0,1-.5.11l-.19,0-.19-.29A6.56,6.56,0,0,0,7,37.2,7.13,7.13,0,0,0,.86,40.74,6.52,6.52,0,0,0,1,47.39l0,.07L15.58,74.08a4.56,4.56,0,0,0,4.05,2.5H39.79a4.55,4.55,0,0,0,4.4-3.43l2-5.89,0-.07C52.23,58,54.36,51.35,53.32,45.09ZM43.63,65.77a1.62,1.62,0,0,0-.24.57l-2,6a1.62,1.62,0,0,1-1.58,1.3H19.64a1.61,1.61,0,0,1-1.46-.92L3.57,46.06,3.52,46A3.86,3.86,0,0,1,7,40.12,3.64,3.64,0,0,1,10.13,42l.28.42A3,3,0,0,0,13,43.7c1.68,0,3.43-1,3.43-2.74V21.12a3.76,3.76,0,0,1,4-3.84,3.76,3.76,0,0,1,4,3.85V34.19a1.45,1.45,0,0,0,1.4,1.46h0a1.5,1.5,0,0,0,1.39-1.55v-16a4,4,0,0,1,8,.18v16a1.26,1.26,0,0,0,1.26,1.23h.3a5.33,5.33,0,0,1,5.1,2.86,1.51,1.51,0,0,0,1.34.73h.23c2,0,6,.73,7,6.52C51.37,51.19,49.27,57.2,43.63,65.77Z"/></g></g></svg>