<svg xmlns="http://www.w3.org/2000/svg" viewBox="0 0 62.92 76.59"><title>Not Good</title><g id="Layer_2" data-name="Layer 2"><g id="Content"><path d="M0,7.61a1.46,1.46,0,0,0,.43,1l6.3,6.3a1.46,1.46,0,0,0,2.07,0,1.51,1.51,0,0,0,0-2.11L5,9H22.12a1.46,1.46,0,0,0,0-2.93H5l3.6-3.56a1.44,1.44,0,0,0,0-2,1.46,1.46,0,0,0-2.07,0L.43,6.57A1.47,1.47,0,0,0,0,7.61Z"/><path d="M62.67,45.09c-.7-4.18-2.77-6.33-4.39-7.39a9.93,9.93,0,0,0-5-1.56,8.06,8.06,0,0,0-5.81-3.51V18.27a6.87,6.87,0,0,0-6.88-7,7,7,0,0,0-4.89,1.93A6.74,6.74,0,0,0,34,15.75a7.13,7.13,0,0,0-4.3-1.4,6.68,6.68,0,0,0-6.89,6.77V40.67a1.27,1.27,0,0,1-.5.11l-.19,0L22,40.46a6.56,6.56,0,0,0-5.65-3.27,7.13,7.13,0,0,0-6.09,3.54,6.52,6.52,0,0,0,.11,6.65l0,.07L24.93,74.08A4.56,4.56,0,0,0,29,76.58H49.14a4.55,4.55,0,0,0,4.4-3.43l2-5.89,0-.07C61.58,58,63.72,51.35,62.67,45.09ZM53,65.77a1.62,1.62,0,0,0-.24.57l-2,6a1.62,1.62,0,0,1-1.58,1.3H29a1.61,1.61,0,0,1-1.46-.92L12.93,46.06,12.87,46a3.86,3.86,0,0,1,3.44-5.83A3.64,3.64,0,0,1,19.48,42l.28.42a3,3,0,0,0,2.57,1.25c1.68,0,3.43-1,3.43-2.74V21.12a3.76,3.76,0,0,1,4-3.84,3.76,3.76,0,0,1,4,3.85V34.19a1.45,1.45,0,0,0,1.4,1.46h0a1.5,1.5,0,0,0,1.39-1.55v-16a4,4,0,0,1,8,.18v16a1.26,1.26,0,0,0,1.26,1.23h.3a5.33,5.33,0,0,1,5.1,2.86,1.51,1.51,0,0,0,1.34.73h.23c2,0,6,.73,7,6.52C60.72,51.19,58.62,57.2,53,65.77Z"/></g></g></svg>