<svg xmlns="http://www.w3.org/2000/svg" viewBox="0 0 137.66 137.66"><defs><style>.cls-1{fill:#8dc641;}</style></defs><title>Contributor</title><g id="Layer_2" data-name="Layer 2"><g id="Content"><g id="Pencil"><path class="cls-1" d="M130.25,7.41a25.27,25.27,0,0,0-35.74,0L18.48,83a4.26,4.26,0,0,0-1,1.58L.26,131.89a4.3,4.3,0,0,0,4,5.77,4.25,4.25,0,0,0,1.26-.19l42.8-13.13a4.3,4.3,0,0,0,1.78-1.07l80.1-80.1a25.27,25.27,0,0,0,0-35.76ZM43.42,116.86l-16,4.92A18.38,18.38,0,0,0,23,114.63a23.25,23.25,0,0,0-5.83-4.13l7.33-20.16h9.89v8.6a4.3,4.3,0,0,0,4.3,4.3h7.59Zm63.32-62.35L54.33,106.92l1.51-7.09a4.31,4.31,0,0,0-4.21-5.2H43V86a4.3,4.3,0,0,0-4.3-4.3H31.93L83.09,30.87l.05,0a16.68,16.68,0,1,1,23.6,23.6Zm17.42-17.42-4,4A25.17,25.17,0,0,0,96.54,17.5l4-4h0a16.68,16.68,0,1,1,23.58,23.6ZM95.9,35.68l-43,43A4.3,4.3,0,1,0,59,84.78l43-43a4.3,4.3,0,0,0-6.08-6.08Z"/></g></g></g></svg>