<svg xmlns="http://www.w3.org/2000/svg" viewBox="0 0 85.32 101.12"><defs><style>.cls-1{fill:#8dc641;}</style></defs><title>Friends - On</title><g id="Layer_2" data-name="Layer 2"><g id="Content"><path class="cls-1" d="M78.62,70.13A22.76,22.76,0,0,0,62.4,63.4H57.22a2,2,0,0,1-2-2,.82.82,0,0,1,.24-.58,36.4,36.4,0,0,0,7-9.84,6.43,6.43,0,0,0,3.8-1.88,18.13,18.13,0,0,0,5-11.79c0-3.08,0-9.3-4.5-10.58C65.74,9,57.63,0,42.67,0,27.39,0,19.27,9,18.53,26.87c-4.16,1.51-4.16,7.5-4.16,10.47,0,5.11,3.74,12.89,8.48,13.62a36.73,36.73,0,0,0,7,9.9.79.79,0,0,1,.24.58,2,2,0,0,1-2,2H22.93A23,23,0,0,0,0,86.35v5.56a9.22,9.22,0,0,0,9.21,9.21H76.12a9.21,9.21,0,0,0,9.2-9.21V86.35A22.79,22.79,0,0,0,78.62,70.13ZM76.12,95.36H9.21a3.46,3.46,0,0,1-3.45-3.45V86.35A17.19,17.19,0,0,1,22.93,69.18h5.18a7.75,7.75,0,0,0,7.74-7.74,6.5,6.5,0,0,0-2-4.7,32,32,0,0,1-6.68-10.06l-1.37-2.86-2.34,1.35a12.49,12.49,0,0,1-3.36-7.82c0-3.61.38-4.71.54-5l3.49.7.06-3.45C24.43,17.2,26.82,5.75,42.67,5.75c12.48,0,18.17,7.36,18.46,23.86l.06,3.62,3.51-.88.26-.06c.15.25.57,1.28.57,5.05a13.41,13.41,0,0,1-3.23,7.83l-2.67-2-1.43,3.31a31.84,31.84,0,0,1-6.74,10.19,6.6,6.6,0,0,0-2,4.71,7.75,7.75,0,0,0,7.74,7.73H62.4A17.17,17.17,0,0,1,79.57,86.35v5.56A3.45,3.45,0,0,1,76.12,95.36Z"/></g></g></svg>