<svg xmlns="http://www.w3.org/2000/svg" viewBox="0 0 100 84.38"><defs><style>.cls-1{fill:#8dc641;}</style></defs><title>Logout</title><g id="Layer_2" data-name="Layer 2"><g id="Content"><g id="_Group_" data-name="&lt;Group&gt;"><path id="_Path_" data-name="&lt;Path&gt;" class="cls-1" d="M16,46.88H70.31a4.69,4.69,0,1,0,0-9.37H16l6.06-6.06a4.69,4.69,0,0,0-6.63-6.63L1.37,38.87q-.16.16-.31.34l-.12.16-.15.21-.12.2L.55,40l-.1.21-.1.21-.08.21c0,.08-.06.15-.08.23s0,.14-.05.21,0,.16-.06.23,0,.16,0,.24,0,.14,0,.21,0,.3,0,.46H0q0,.23,0,.46c0,.07,0,.14,0,.21s0,.16,0,.25,0,.16.06.23,0,.14.05.21.05.15.08.22L.36,44l.09.2.1.21.11.19.12.21.15.2.13.17c.09.11.19.22.3.33v0L15.43,59.57a4.69,4.69,0,0,0,6.63-6.63Z"/><path id="_Path_2" data-name="&lt;Path&gt;" class="cls-1" d="M95.31,0H35.94a4.69,4.69,0,0,0-4.69,4.69V23.44a4.69,4.69,0,0,0,9.37,0V9.37h50V75h-50V60.94a4.69,4.69,0,1,0-9.37,0V79.69a4.69,4.69,0,0,0,4.69,4.69H95.31A4.69,4.69,0,0,0,100,79.69v-75A4.69,4.69,0,0,0,95.31,0Z"/></g></g></g></svg>