<svg xmlns="http://www.w3.org/2000/svg" viewBox="0 0 77.33 100"><defs><style>.cls-1{fill:#8dc641;}</style></defs><title>Privacy_1</title><g id="Layer_2" data-name="Layer 2"><g id="Content"><path class="cls-1" d="M77.33,90.11V49.49a9.9,9.9,0,0,0-9.89-9.89H67.2V28.53a28.53,28.53,0,1,0-57.06,0V39.59H9.89A9.9,9.9,0,0,0,0,49.49V90.11A9.9,9.9,0,0,0,9.89,100H67.44A9.9,9.9,0,0,0,77.33,90.11ZM16.73,28.53a21.93,21.93,0,1,1,43.87,0V39.59H16.73ZM6.6,90.11V49.49a3.3,3.3,0,0,1,3.3-3.3H67.44a3.3,3.3,0,0,1,3.3,3.3V90.11a3.3,3.3,0,0,1-3.3,3.3H9.89A3.3,3.3,0,0,1,6.6,90.11Z"/></g></g></svg>