<svg xmlns="http://www.w3.org/2000/svg" viewBox="0 0 74.68 101.12"><defs><style>.cls-1{fill:#8dc641;}</style></defs><title>The List - On</title><g id="Layer_2" data-name="Layer 2"><g id="Content"><path class="cls-1" d="M68.68,0H6A6,6,0,0,0,0,6V95.12a6,6,0,0,0,6,6H68.68a6,6,0,0,0,6-6V6A6,6,0,0,0,68.68,0Zm1.47,95.13a1.42,1.42,0,0,1-1.47,1.47H6a1.42,1.42,0,0,1-1.47-1.47V6A1.42,1.42,0,0,1,6,4.52H68.68A1.42,1.42,0,0,1,70.16,6V95.13ZM59.75,71a2.19,2.19,0,0,1-2.2,2.2H29.38a2.2,2.2,0,0,1,0-4.4H57.54A2.19,2.19,0,0,1,59.75,71Zm0,13.59a2.19,2.19,0,0,1-2.2,2.2H29.38a2.2,2.2,0,0,1,0-4.4H57.54A2.19,2.19,0,0,1,59.75,84.6Zm0-27.06a2.19,2.19,0,0,1-2.2,2.2H29.38a2.2,2.2,0,1,1,0-4.4H57.54A2.27,2.27,0,0,1,59.75,57.54Zm0-13.34a2.19,2.19,0,0,1-2.2,2.2H29.38a2.2,2.2,0,0,1,0-4.4H57.54A2.27,2.27,0,0,1,59.75,44.2ZM27.06,30.86a2.19,2.19,0,0,1,2.2-2.2H57.17a2.2,2.2,0,1,1,0,4.4H29.27A2.2,2.2,0,0,1,27.06,30.86Zm0-13.47a2.19,2.19,0,0,1,2.2-2.2H57.17a2.2,2.2,0,1,1,0,4.4H29.27A2.12,2.12,0,0,1,27.06,17.39Zm-8.08,0a2.45,2.45,0,1,1-2.45-2.45A2.45,2.45,0,0,1,19,17.39Zm0,13.47a2.45,2.45,0,1,1-2.45-2.45A2.31,2.31,0,0,1,19,30.86Zm0,13.09a2.45,2.45,0,1,1-2.45-2.45A2.32,2.32,0,0,1,19,43.95ZM19,57.3a2.45,2.45,0,1,1-2.45-2.45A2.45,2.45,0,0,1,19,57.3Zm0,13.83a2.45,2.45,0,1,1-2.45-2.45A2.45,2.45,0,0,1,19,71.13ZM19,84.6a2.45,2.45,0,1,1-2.45-2.45A2.38,2.38,0,0,1,19,84.6Z"/></g></g></svg>