<svg xmlns="http://www.w3.org/2000/svg" viewBox="0 0 117.77 100"><defs><style>.cls-1{fill:#67696b;}</style></defs><title>Tray</title><g id="Layer_2" data-name="Layer 2"><g id="Content"><path class="cls-1" d="M114.38,0H3.39A3.4,3.4,0,0,0,0,3.39v86A10.65,10.65,0,0,0,10.64,100h96.48a10.65,10.65,0,0,0,10.64-10.64v-86A3.4,3.4,0,0,0,114.38,0Zm-2.92,89.36a4.33,4.33,0,0,1-4.33,4.33H10.64a4.33,4.33,0,0,1-4.33-4.33v-83H111.45Z"/><path class="cls-1" d="M19.79,63.33h77a3.16,3.16,0,1,0,0-6.32h-77a3.16,3.16,0,0,0,0,6.32Z"/><path class="cls-1" d="M19.79,82.23h77a3.16,3.16,0,1,0,0-6.32h-77a3.16,3.16,0,1,0,0,6.32Z"/><path class="cls-1" d="M19.79,25.58h77a3.16,3.16,0,1,0,0-6.32h-77a3.16,3.16,0,0,0,0,6.32Z"/><path class="cls-1" d="M19.79,44.48h77a3.16,3.16,0,1,0,0-6.32h-77a3.16,3.16,0,0,0,0,6.32Z"/></g></g></svg>