<svg xmlns="http://www.w3.org/2000/svg" viewBox="0 0 47.11 40"><defs><style>.cls-1{fill:#67696b;}</style></defs><title>Feed Icon - Profile</title><g id="Layer_2" data-name="Layer 2"><g id="Content"><path class="cls-1" d="M45.75,0H1.36A1.36,1.36,0,0,0,0,1.36V35.74A4.26,4.26,0,0,0,4.26,40H42.85a4.26,4.26,0,0,0,4.26-4.26V1.36A1.36,1.36,0,0,0,45.75,0ZM44.58,35.74a1.73,1.73,0,0,1-1.73,1.73H4.26a1.73,1.73,0,0,1-1.73-1.73V2.53H44.58Z"/><path class="cls-1" d="M7.92,25.33H38.74a1.26,1.26,0,0,0,0-2.53H7.92a1.26,1.26,0,0,0,0,2.53Z"/><path class="cls-1" d="M7.92,32.89H38.74a1.26,1.26,0,1,0,0-2.53H7.92a1.26,1.26,0,0,0,0,2.53Z"/><path class="cls-1" d="M8,17.6H21.26a1.36,1.36,0,0,0,1.36-1.36v-7a1.36,1.36,0,0,0-1.36-1.36H8A1.36,1.36,0,0,0,6.65,9.2v7A1.36,1.36,0,0,0,8,17.6Zm1.17-7.24H20.09v4.71H9.18Z"/><path class="cls-1" d="M27.31,10.37H38.74a1.26,1.26,0,0,0,0-2.53H27.31a1.26,1.26,0,0,0,0,2.53Z"/><path class="cls-1" d="M27.31,17.6H38.74a1.26,1.26,0,0,0,0-2.53H27.31a1.26,1.26,0,0,0,0,2.53Z"/></g></g></svg>