<svg xmlns="http://www.w3.org/2000/svg" viewBox="0 0 106 96.17"><defs><style>.cls-1{fill:#8dc641;}</style></defs><title>Girl</title><g id="Layer_2" data-name="Layer 2"><g id="Description"><path class="cls-1" d="M43.81,77.05a3.6,3.6,0,0,0,0,6.66,25.39,25.39,0,0,0,9.82,2c10.15,0,19.46-6,23.16-14.88A3.6,3.6,0,1,0,70.12,68c-3.63,8.71-14.42,12.86-23.56,9.06A3.57,3.57,0,0,0,43.81,77.05Z"/><circle class="cls-1" cx="41.92" cy="56.83" r="5.7"/><circle class="cls-1" cx="69.24" cy="56.83" r="5.7"/><path class="cls-1" d="M99.27,37.6l-.09-.36c-.05-.2-.1-.39-.15-.59l-.1-.41c-.12-.51-.24-1-.38-1.53s-.38-1.23-.58-1.84l-.22-.67c-.16-.5-.33-1-.51-1.5s-.34-.84-.52-1.26l-.21-.5c-.31-.73-.61-1.46-1-2.17l-.26-.5L95.14,26A46.74,46.74,0,0,0,53.33,0,47.32,47.32,0,0,0,15.45,18.75l-.28.35c-.22.28-.44.56-.66.86s-.31.45-.45.68L13.8,21c-.49.73-1.06,1.58-1.59,2.46L12,23.9l-.11.2c-.63,1.1-1.15,2.1-1.6,3-.07.15-.14.3-.2.46l-.12.28C9.43,29,9,30,8.69,30.89c-.1.27-.19.55-.28.83l-.14.42c-.29.83-.59,1.72-.84,2.65-.12.42-.22.84-.32,1.27L7,36.54c0,.21-.1.41-.15.61l-.12.46A14.52,14.52,0,0,0,0,49.48,13.06,13.06,0,0,0,7,61a48.49,48.49,0,0,0,2.38,6.74V82.21a9.6,9.6,0,0,0,9.59,9.59H33a47.87,47.87,0,0,0,40,0H87.07a9.6,9.6,0,0,0,9.59-9.59V67.72A48.46,48.46,0,0,0,99,61a13.06,13.06,0,0,0,7-11.51A14.53,14.53,0,0,0,99.27,37.6ZM39,27.27a6.25,6.25,0,0,0-4.8-1.3A6.09,6.09,0,0,0,30,28.59c-4.84,7.21-10.19,10.24-15.9,9,.11-.45.23-.9.36-1.34s.31-1,.48-1.51.44-1.28.69-1.91c.17-.43.35-.85.53-1.27.28-.65.57-1.29.88-1.92.21-.42.42-.82.65-1.23.31-.57.62-1.13,1-1.68s.64-1,1-1.53l.06-.1c.23-.34.45-.68.69-1,.67-.93,1.24-1.66,1.83-2.36A40.15,40.15,0,0,1,53,7.88c15.69,0,29.54,8.51,36.14,22.21.14.29.27.58.4.87.31.68.6,1.38.86,2.08q.26.69.51,1.39.31.9.58,1.83c.09.32.18.63.27,1C82.26,38.87,56.84,41.54,39,27.27Zm-3.62,6.31C48.59,43.69,64.74,45.84,76.07,45.84a94.2,94.2,0,0,0,19.53-2,7.27,7.27,0,0,1,3.2,5.65,5.84,5.84,0,0,1-4,5.51h0a3.58,3.58,0,0,0-2.35,2.6,40.5,40.5,0,0,1-78.92,0A3.58,3.58,0,0,0,11.19,55a5.84,5.84,0,0,1-4-5.51,7.34,7.34,0,0,1,3-5.5C19.42,47.18,28.3,43.52,35.35,33.58Zm-19.44,45a47,47,0,0,0,6.62,6.69h-3.6a3,3,0,0,1-3-3Zm74.17,0v3.67a3,3,0,0,1-3,3h-3.6A46.93,46.93,0,0,0,90.08,78.54Z"/></g></g></svg>