<svg xmlns="http://www.w3.org/2000/svg" viewBox="0 0 44.13 40"><defs><style>.cls-1{fill:#8dc641;}</style></defs><title>Messages On</title><g id="Layer_2" data-name="Layer 2"><g id="Content"><path class="cls-1" d="M29.17,33.36a27.29,27.29,0,0,1-7.3,1C9.81,34.34,0,26.64,0,17.17S9.81,0,21.87,0,43.74,7.7,43.74,17.17A14.48,14.48,0,0,1,40.8,25.8a9.69,9.69,0,0,0-1.22,4.54A9.83,9.83,0,0,0,41,35.93L44.13,40ZM2.61,17.17c0,8,8.64,14.56,19.26,14.56a24.62,24.62,0,0,0,7-1l.46-.14,8.06,3.58A15.65,15.65,0,0,1,37,30.34a12.23,12.23,0,0,1,1.71-6,11.87,11.87,0,0,0,2.47-7.12c0-8-8.64-14.56-19.26-14.56S2.61,9.14,2.61,17.17Z"/></g></g></svg>