<svg xmlns="http://www.w3.org/2000/svg" viewBox="0 0 131.35 106"><defs><style>.cls-1,.cls-2{fill:#8dc641;}.cls-2{stroke:#232f39;stroke-miterlimit:10;stroke-width:6px;}</style></defs><title>Tags</title><g id="Layer_2" data-name="Layer 2"><g id="Content"><path class="cls-1" d="M62.14,106a11,11,0,0,1-8.06-3.32L6.88,55.42A22.68,22.68,0,0,1,2,47.78a23.43,23.43,0,0,1-2-8.87V11.45A11.06,11.06,0,0,1,3.39,3.39,11.06,11.06,0,0,1,11.45,0H38.91a23.42,23.42,0,0,1,8.87,2,23.47,23.47,0,0,1,7.71,4.91L102.68,54A11.45,11.45,0,0,1,106,62.14a11,11,0,0,1-3.32,8.06L70.27,102.68A11.45,11.45,0,0,1,62.14,106ZM11.45,6A5.12,5.12,0,0,0,7.63,7.63,5.12,5.12,0,0,0,6,11.45V38.91a17.55,17.55,0,0,0,1.52,6.58,16.84,16.84,0,0,0,3.58,5.66L58.32,98.44A5.09,5.09,0,0,0,62.14,100a5.44,5.44,0,0,0,3.94-1.62L98.44,66A5.09,5.09,0,0,0,100,62.14a5.44,5.44,0,0,0-1.62-3.94L51.24,11.13a17.59,17.59,0,0,0-5.76-3.61A17.55,17.55,0,0,0,38.91,6ZM24.12,35.57A11.45,11.45,0,0,1,12.67,24.12,11.45,11.45,0,0,1,24.12,12.67,11.45,11.45,0,0,1,35.57,24.12a11.08,11.08,0,0,1-3.35,8.09h0A11.08,11.08,0,0,1,24.12,35.57Zm0-16.9a5.45,5.45,0,0,0-5.45,5.45,5.45,5.45,0,0,0,5.45,5.45,5.45,5.45,0,0,0,5.45-5.45,5.45,5.45,0,0,0-5.45-5.45Z"/><path class="cls-2" d="M49.47,3"/><path class="cls-1" d="M87.49,106A10.35,10.35,0,0,1,82,104.64a21.51,21.51,0,0,1-4.09-3.45L82.25,97a15.71,15.71,0,0,0,2.9,2.5,4.63,4.63,0,0,0,2.33.49,5.43,5.43,0,0,0,3.94-1.62L123.78,66a5.09,5.09,0,0,0,1.57-3.82,5.44,5.44,0,0,0-1.62-3.94L76.59,11.13a17.6,17.6,0,0,0-5.76-3.61A17.54,17.54,0,0,0,64.25,6H58.48V0h5.78a23.41,23.41,0,0,1,8.87,2,23.48,23.48,0,0,1,7.71,4.91L128,54a11.45,11.45,0,0,1,3.32,8.13A11,11,0,0,1,128,70.2L95.62,102.68A11.44,11.44,0,0,1,87.49,106Z"/></g></g></svg>