<svg xmlns="http://www.w3.org/2000/svg" viewBox="0 0 31.27 30"><defs><style>.cls-1{fill:#929497;}</style></defs><title>Comment Icon</title><g id="Layer_2" data-name="Layer 2"><g id="Content"><path class="cls-1" d="M25.79,0H5.48A5.49,5.49,0,0,0,0,5.48V18a5.49,5.49,0,0,0,5.48,5.48H18.41l6.19,6.19a1.1,1.1,0,0,0,1.87-.78V23.44A5.49,5.49,0,0,0,31.27,18V5.48A5.49,5.49,0,0,0,25.79,0Zm3.29,18a3.29,3.29,0,0,1-3.29,3.29h-.41a1.1,1.1,0,0,0-1.1,1.1v3.86l-4.64-4.64a1.1,1.1,0,0,0-.78-.32H5.48A3.29,3.29,0,0,1,2.19,18V5.48A3.29,3.29,0,0,1,5.48,2.19h20.3a3.29,3.29,0,0,1,3.29,3.29Z"/><path class="cls-1" d="M23.7,7.76H7.56a1.1,1.1,0,0,0,0,2.19H23.7a1.1,1.1,0,0,0,0-2.19Z"/><path class="cls-1" d="M23.7,13.9H7.56a1.1,1.1,0,0,0,0,2.19H23.7a1.1,1.1,0,0,0,0-2.19Z"/></g></g></svg>