<svg xmlns="http://www.w3.org/2000/svg" viewBox="0 0 41.78 40"><defs><style>.cls-1{fill:#8dc641;}</style></defs><title>Connection On</title><g id="Layer_2" data-name="Layer 2"><g id="Content"><path class="cls-1" d="M9.64,40A2.69,2.69,0,0,1,7,36.9L8.72,25.78l-7.94-8a2.69,2.69,0,0,1,1.48-4.55l11.11-1.78,5.13-10a2.69,2.69,0,0,1,4.78,0l5.13,10,11.11,1.78A2.69,2.69,0,0,1,41,17.81l-7.94,8L34.8,36.9a2.68,2.68,0,0,1-1.08,2.59,2.73,2.73,0,0,1-2.79.22l-10-5.09-10,5.09A2.69,2.69,0,0,1,9.64,40Zm22.55-2.78h0ZM20.89,31.49,32,37.13,30.08,24.81,38.88,16l-12.3-2L20.89,2.91,15.21,14,2.9,16l8.79,8.83L9.77,37.13Z"/></g></g></svg>