<svg xmlns="http://www.w3.org/2000/svg" viewBox="0 0 116.88 101.12"><defs><style>.cls-1{fill:#8dc641;}</style></defs><title>Contribute - On</title><g id="Layer_2" data-name="Layer 2"><g id="Content"><path class="cls-1" d="M106.64,73.82a24.5,24.5,0,0,1,3-11.39,34.87,34.87,0,0,0,7.2-20.92c0-22.89-23.8-41.51-53-41.51s-53,18.62-53,41.51c0,.32,0,.64,0,1A41.07,41.07,0,0,1,16,39.83C17.14,20.55,38.16,5.14,63.83,5.14c26.42,0,47.91,16.31,47.91,36.37a29.69,29.69,0,0,1-6.12,17.77l-.19.27a29.34,29.34,0,0,0-3.92,14.27A36.92,36.92,0,0,0,103,84.34l-20.8-9.23-.91.27a60.12,60.12,0,0,1-11.08,2.14,28.57,28.57,0,0,1-3.85,5.42A66,66,0,0,0,81.8,80.57L116.45,96l-6.15-8C108,85,106.64,79.59,106.64,73.82Z"/><path class="cls-1" d="M0,101.12,4.92,94.7c1.4-1.82,2.27-5.2,2.27-8.82a15.29,15.29,0,0,0-1.93-7.16A22.83,22.83,0,0,1,.61,65.12C.61,50.19,16.08,38,35.1,38S69.59,50.19,69.59,65.12,54.12,92.19,35.1,92.19a43,43,0,0,1-11.51-1.55Zm35.1-59c-16.74,0-30.37,10.3-30.37,23A18.72,18.72,0,0,0,8.62,76.34a19.29,19.29,0,0,1,2.69,9.54,24.67,24.67,0,0,1-.73,6L23.3,86.27l.73.22A38.82,38.82,0,0,0,35.1,88.07c16.74,0,30.37-10.3,30.37-23S51.84,42.17,35.1,42.17Z"/></g></g></svg>