<svg xmlns="http://www.w3.org/2000/svg" viewBox="0 0 20 20"><defs><style>.cls-1{fill:#fff;}</style></defs><title>Remove</title><g id="Layer_2" data-name="Layer 2"><g id="Content"><path class="cls-1" d="M19.37,13.17,16.2,10l3.17-3.17a2.16,2.16,0,0,0,0-3.06L16.23.63a2.16,2.16,0,0,0-3.06,0L10,3.8,6.83.63a2.16,2.16,0,0,0-3.06,0L.63,3.77a2.16,2.16,0,0,0,0,3.06L3.8,10,.63,13.17a2.16,2.16,0,0,0,0,3.06l3.14,3.14a2.16,2.16,0,0,0,3.06,0L10,16.2l3.17,3.17a2.16,2.16,0,0,0,3.06,0l3.14-3.14A2.16,2.16,0,0,0,19.37,13.17ZM14.7,17.84,10,13.14l-4.7,4.7L2.16,14.7,6.86,10,2.16,5.3,5.3,2.16,10,6.86l4.7-4.7L17.84,5.3,13.14,10l4.7,4.7Z"/></g></g></svg>