<svg xmlns="http://www.w3.org/2000/svg" viewBox="0 0 33.43 30"><defs><style>.cls-1{fill:#929497;}</style></defs><title>Share Icon</title><g id="Layer_2" data-name="Layer 2"><g id="Content"><path class="cls-1" d="M1.42,25.72A33.14,33.14,0,0,0,3,29.4a1.43,1.43,0,0,0,1.22.6,1.78,1.78,0,0,0,.57-.09A1.8,1.8,0,0,0,6,28a24.82,24.82,0,0,1,.21-5.24c.36-1.37.9-3.45,2.88-4.41,2.37-1.14,4.27-1.51,7.83-1.51h3V20a2.4,2.4,0,0,0,3.92,1.86l8.78-8.75a2.7,2.7,0,0,0,0-3.82L24.09.74a3.28,3.28,0,0,0-.28-.23A2.33,2.33,0,0,0,22.34,0a2.4,2.4,0,0,0-2.4,2.4V5.56C16.19,5.49,8,5.43,3.31,9.8-2.77,15.48,1.38,25.62,1.42,25.72Zm20.77-11-1-.09c-.09,0-.68,0-4.24,0-3.9,0-6.12.44-8.8,1.73C5.2,17.71,4.45,20.58,4,22.12a16.1,16.1,0,0,0-.33,3.27l-.22-.53c0-.09-3.57-8.83,1.35-13.43C8.95,7.6,17.07,7.75,20.14,7.81h2.05V2.4c0-.05.05-.1.1-.12a.16.16,0,0,1,.16,0l8.61,8.59a.45.45,0,0,1,0,.64L22.4,20.15c-.08,0-.22,0-.22-.14Z"/></g></g></svg>