<svg xmlns="http://www.w3.org/2000/svg" viewBox="0 0 99.18 92.27"><defs><style>.cls-1{fill:#8dc641;}</style></defs><title>Content_1</title><g id="Layer_2" data-name="Layer 2"><g id="Content"><path class="cls-1" d="M94.34,0H4.84A4.85,4.85,0,0,0,0,4.85V87.43a4.85,4.85,0,0,0,4.84,4.84H94.34a4.85,4.85,0,0,0,4.84-4.84V4.85A4.85,4.85,0,0,0,94.34,0ZM91.22,8V84.31H8V8Z"/><rect class="cls-1" x="13.98" y="17.49" width="38.11" height="24.49" rx="2.47" ry="2.47"/><rect class="cls-1" x="58.69" y="17.49" width="26.05" height="8" rx="2.47" ry="2.47"/><rect class="cls-1" x="58.69" y="33.98" width="26.05" height="8" rx="2.47" ry="2.47"/><rect class="cls-1" x="13.98" y="50.95" width="70.77" height="8" rx="2.47" ry="2.47"/><rect class="cls-1" x="13.98" y="67.23" width="70.77" height="8" rx="2.47" ry="2.47"/></g></g></svg>