<svg xmlns="http://www.w3.org/2000/svg" viewBox="0 0 51.19 40"><defs><style>.cls-1{fill:#8dc641;}</style></defs><title>Emails On</title><g id="Layer_2" data-name="Layer 2"><g id="Content"><path class="cls-1" d="M47,0H4.15A4,4,0,0,0,1.22,1.22,4,4,0,0,0,0,4.15v31.7a4,4,0,0,0,1.22,2.93A4,4,0,0,0,4.15,40H47a4.16,4.16,0,0,0,4.15-4.15V4.15A4,4,0,0,0,50,1.22,4,4,0,0,0,47,0Zm1.45,35.85A1.46,1.46,0,0,1,47,37.29H4.15A1.46,1.46,0,0,1,2.7,35.85V12.12l.9,1A16.55,16.55,0,0,0,5.55,15c5.16,4,9.34,7.28,12.42,9.85,1,.82,1.78,1.47,2.4,1.94a13,13,0,0,0,2.42,1.36,6.24,6.24,0,0,0,5.61,0,13,13,0,0,0,2.42-1.36c.62-.46,1.42-1.12,2.4-1.94C36.29,22.28,40.47,19,45.65,15a16.52,16.52,0,0,0,1.94-1.86l.9-1ZM47,9.33a14.25,14.25,0,0,1-3,3.49q-5.63,4.43-11.69,9.24l-1,.85Q30.46,23.64,30,24T28.63,25a8.3,8.3,0,0,1-1.57.85,4,4,0,0,1-1.44.3,4,4,0,0,1-1.5-.3A8.26,8.26,0,0,1,22.56,25q-.82-.55-1.32-.94t-1.36-1.11l-1-.86q-6-4.79-11.67-9.23A10.73,10.73,0,0,1,2.7,4.15,1.46,1.46,0,0,1,4.15,2.7h43l.12.07a.85.85,0,0,1,.51.07.82.82,0,0,1,.39.52h0a.92.92,0,0,1,.26.74V5.23A7.8,7.8,0,0,1,47,9.33Z"/></g></g></svg>