<svg xmlns="http://www.w3.org/2000/svg" viewBox="0 0 119.08 101.12"><defs><style>.cls-1{fill:#8dc641;}</style></defs><title>Feed - On</title><g id="Layer_2" data-name="Layer 2"><g id="Content"><path class="cls-1" d="M115.65,0H3.43A3.43,3.43,0,0,0,0,3.43V90.36a10.77,10.77,0,0,0,10.76,10.76h97.56a10.77,10.77,0,0,0,10.76-10.76V3.43A3.43,3.43,0,0,0,115.65,0Zm-3,90.36a4.38,4.38,0,0,1-4.38,4.38H10.76a4.38,4.38,0,0,1-4.38-4.38v-84H112.7Z"/><path class="cls-1" d="M20,64H97.92a3.19,3.19,0,1,0,0-6.39H20A3.19,3.19,0,0,0,20,64Z"/><path class="cls-1" d="M20,83.15H97.92a3.19,3.19,0,1,0,0-6.39H20a3.19,3.19,0,0,0,0,6.39Z"/><path class="cls-1" d="M20.25,44.5h33.5a3.43,3.43,0,0,0,3.43-3.43V23.25a3.43,3.43,0,0,0-3.43-3.43H20.25a3.43,3.43,0,0,0-3.43,3.43V41.07A3.43,3.43,0,0,0,20.25,44.5Zm3-18.29H50.8V38.11H23.21Z"/><path class="cls-1" d="M69,26.21H97.92a3.19,3.19,0,1,0,0-6.39H69a3.19,3.19,0,0,0,0,6.39Z"/><path class="cls-1" d="M69,44.5H97.92a3.19,3.19,0,1,0,0-6.39H69a3.19,3.19,0,0,0,0,6.39Z"/></g></g></svg>