<svg xmlns="http://www.w3.org/2000/svg" viewBox="0 0 98.45 100"><defs><style>.cls-1{fill:#8dc641;}</style></defs><title>Keywords</title><g id="Layer_2" data-name="Layer 2"><g id="Content"><path class="cls-1" d="M0,33.8A33.82,33.82,0,0,0,45.79,65.4l7.84,7.84a2.46,2.46,0,0,0,1.74.72h5.3v5.3a2.46,2.46,0,0,0,2.46,2.46h2.41v2.41A2.46,2.46,0,0,0,68,86.6h6v6a2.46,2.46,0,0,0,.72,1.74l4.91,4.9a2.46,2.46,0,0,0,1.74.72H96a2.46,2.46,0,0,0,2.46-2.46V79.85a2.46,2.46,0,0,0-.72-1.74L65.41,45.79A33.8,33.8,0,1,0,0,33.8Zm4.93,0A28.87,28.87,0,1,1,60.25,45.39a2.46,2.46,0,0,0,.49,2.71l0,0L93.52,80.87v4.45l-27-27a2.22,2.22,0,1,0-3.14,3.14L93.52,91.59v3.48H82.43L79,91.61V84.14a2.46,2.46,0,0,0-2.46-2.46h-6V79.26A2.46,2.46,0,0,0,68,76.8H65.6V71.5A2.46,2.46,0,0,0,63.13,69H56.39l-8.27-8.27,0,0a2.46,2.46,0,0,0-2.71-.49A28.89,28.89,0,0,1,4.93,33.8Z"/><path class="cls-1" d="M14.29,23.51a9.23,9.23,0,1,0,9.23-9.23A9.24,9.24,0,0,0,14.29,23.51Zm4.93,0a4.3,4.3,0,1,1,4.3,4.3A4.3,4.3,0,0,1,19.21,23.51Z"/></g></g></svg>