<svg xmlns="http://www.w3.org/2000/svg" viewBox="0 0 49.15 43"><defs><style>.cls-1{fill:#cccccb;}</style></defs><title>Photos</title><g id="Layer_2" data-name="Layer 2"><g id="Content"><path class="cls-1" d="M41.5,43H7.65a7.41,7.41,0,0,1-5.41-2.24A7.4,7.4,0,0,1,0,35.35V13.81A7.4,7.4,0,0,1,2.24,8.4,7.41,7.41,0,0,1,7.65,6.15H12l.86-2.3a6,6,0,0,1,2.21-2.73A5.77,5.77,0,0,1,18.42,0H30.73a5.77,5.77,0,0,1,3.35,1.13,6,6,0,0,1,2.21,2.72l.87,2.31H41.5A7.4,7.4,0,0,1,46.91,8.4h0a7.4,7.4,0,0,1,2.24,5.41V35.35A7.66,7.66,0,0,1,41.5,43ZM7.65,9.15a4.45,4.45,0,0,0-3.29,1.36A4.45,4.45,0,0,0,3,13.81V35.35a4.45,4.45,0,0,0,1.36,3.29A4.45,4.45,0,0,0,7.65,40H41.5a4.66,4.66,0,0,0,4.65-4.65V13.81a4.44,4.44,0,0,0-1.36-3.29h0A4.45,4.45,0,0,0,41.5,9.15H35.08L33.49,4.91a3,3,0,0,0-1.13-1.33A2.8,2.8,0,0,0,30.73,3H18.42a2.8,2.8,0,0,0-1.63.58,3,3,0,0,0-1.13,1.35L14.08,9.15ZM24.58,36.85a11.87,11.87,0,0,1-8.67-3.6,11.86,11.86,0,0,1-3.6-8.67,11.87,11.87,0,0,1,3.6-8.67,11.87,11.87,0,0,1,8.67-3.6,11.87,11.87,0,0,1,8.67,3.6,11.87,11.87,0,0,1,3.6,8.67,11.86,11.86,0,0,1-3.6,8.67h0A11.87,11.87,0,0,1,24.58,36.85Zm0-21.54A8.85,8.85,0,0,0,18,18a8.85,8.85,0,0,0-2.72,6.55A8.85,8.85,0,0,0,18,31.12a8.85,8.85,0,0,0,6.55,2.72,8.85,8.85,0,0,0,6.55-2.72h0a8.85,8.85,0,0,0,2.72-6.55A8.85,8.85,0,0,0,31.12,18,8.85,8.85,0,0,0,24.58,15.31Z"/><path class="cls-1" d="M24.58,17.65a6.94,6.94,0,0,0-6.92,6.92,6.93,6.93,0,0,0,6.92,6.92,6.94,6.94,0,0,0,6.92-6.92,6.94,6.94,0,0,0-6.92-6.92Z"/></g></g></svg>