<svg xmlns="http://www.w3.org/2000/svg" viewBox="0 0 100.09 100"><defs><style>.cls-1{fill:#8dc641;}</style></defs><title>Telephone - On</title><g id="Layer_2" data-name="Layer 2"><g id="Content"><path class="cls-1" d="M75.27,100a47.86,47.86,0,0,1-6.58-.68,48.88,48.88,0,0,1-11.06-3.38,90,90,0,0,1-14.37-7.87,106.93,106.93,0,0,1-17-14.33A112.56,112.56,0,0,1,14.43,60.27a97,97,0,0,1-7.6-12A65.67,65.67,0,0,1,2.45,38.18a54.37,54.37,0,0,1-2-7.92A27.41,27.41,0,0,1,0,24.67c.06-1,.09-1.66.09-1.84l0-.4a12.78,12.78,0,0,1,1.18-3.75,10.51,10.51,0,0,1,2.41-3.3L16.83,2.28a7.39,7.39,0,0,1,9.55-.94A10.16,10.16,0,0,1,28.82,4L39.59,24.39A8,8,0,0,1,40.38,30a9.27,9.27,0,0,1-2.54,4.76L33.54,39a17.46,17.46,0,0,0,1.29,3.08,41.31,41.31,0,0,0,3.43,5.42A61.73,61.73,0,0,0,45,55a63.85,63.85,0,0,0,7.6,6.81A42.87,42.87,0,0,0,58,65.28a12.59,12.59,0,0,0,2.77,1.16l.26,0,5.1-5.19a9.27,9.27,0,0,1,6.4-2.52,9,9,0,0,1,3.39.6H76l.84.43L96,71.13a8.12,8.12,0,0,1,4,5.36l0,.21a7.63,7.63,0,0,1-2.28,6.59L84.52,96.41a10.34,10.34,0,0,1-3.17,2.29,12.93,12.93,0,0,1-3.75,1.17l-.73.07C76.46,100,75.93,100,75.27,100ZM6.36,23.17c0,.35,0,1-.1,1.86a21.38,21.38,0,0,0,.36,4.25,48.59,48.59,0,0,0,1.78,7,59.89,59.89,0,0,0,4,9.15,90.81,90.81,0,0,0,7.11,11.18A106.28,106.28,0,0,0,30.67,69.32a100.93,100.93,0,0,0,16,13.52A84.28,84.28,0,0,0,60,90.16a43.74,43.74,0,0,0,9.61,3c5,.76,5.89.65,6.61.57l.57,0a6.69,6.69,0,0,0,1.82-.6,4.42,4.42,0,0,0,1.36-1L93.33,78.86a1.41,1.41,0,0,0,.51-1.24c-.06-.22-.25-.64-1-1.14L73.56,65.18A2.48,2.48,0,0,0,72.48,65a3,3,0,0,0-2.1.8l-5.51,5.61A4.57,4.57,0,0,1,63,72.57a5,5,0,0,1-1.61.31l-.61-.06-1.24-.25a17.82,17.82,0,0,1-4.38-1.72,48.09,48.09,0,0,1-6.23-4,69.42,69.42,0,0,1-8.34-7.45,67.34,67.34,0,0,1-7.35-8.25,46.42,46.42,0,0,1-3.94-6.25,20.65,20.65,0,0,1-2.06-5.58l-.05-.59A5.44,5.44,0,0,1,27.45,37a4.7,4.7,0,0,1,1.07-1.83l4.89-4.89a3.07,3.07,0,0,0,.84-1.61,1.73,1.73,0,0,0-.16-1.3L23.42,7.13a4.14,4.14,0,0,0-.8-.79c-.22-.16-.62-.41-1.38.36L8,19.91A4.62,4.62,0,0,0,7,21.39,6.63,6.63,0,0,0,6.36,23.17Zm54.06,43.9h0Z"/></g></g></svg>