<svg xmlns="http://www.w3.org/2000/svg" viewBox="0 0 40.04 40"><defs><style>.cls-1{fill:#cccccb;}</style></defs><title>Telephone</title><g id="Layer_2" data-name="Layer 2"><g id="Content"><path class="cls-1" d="M30.11,40a19.15,19.15,0,0,1-2.63-.27,19.55,19.55,0,0,1-4.42-1.35,36,36,0,0,1-5.75-3.15,42.77,42.77,0,0,1-6.8-5.73,45,45,0,0,1-4.73-5.39,38.8,38.8,0,0,1-3-4.79A26.27,26.27,0,0,1,1,15.27a21.75,21.75,0,0,1-.8-3.17A11,11,0,0,1,0,9.87c0-.42,0-.66,0-.74V9a5.11,5.11,0,0,1,.47-1.5,4.21,4.21,0,0,1,1-1.32L6.73.91A3,3,0,0,1,10.55.53a4.07,4.07,0,0,1,1,1.06l4.3,8.16A3.18,3.18,0,0,1,16.15,12a3.71,3.71,0,0,1-1,1.9L13.42,15.6a7,7,0,0,0,.52,1.23A16.52,16.52,0,0,0,15.3,19,24.69,24.69,0,0,0,18,22a25.54,25.54,0,0,0,3,2.73,17.15,17.15,0,0,0,2.16,1.39,5,5,0,0,0,1.11.46l.1,0,2-2.07a3.71,3.71,0,0,1,2.56-1,3.59,3.59,0,0,1,1.36.24h.06l.33.17,7.67,4.53A3.25,3.25,0,0,1,40,30.6v.08a3.05,3.05,0,0,1-.91,2.64l-5.29,5.25a4.13,4.13,0,0,1-1.27.91,5.17,5.17,0,0,1-1.5.47l-.29,0C30.59,40,30.37,40,30.11,40ZM2.54,9.27c0,.14,0,.39,0,.74a8.55,8.55,0,0,0,.15,1.7,19.44,19.44,0,0,0,.71,2.79,24,24,0,0,0,1.58,3.66,36.32,36.32,0,0,0,2.84,4.47,42.51,42.51,0,0,0,4.48,5.09,40.37,40.37,0,0,0,6.4,5.41A33.71,33.71,0,0,0,24,36.06a17.5,17.5,0,0,0,3.84,1.19,9.63,9.63,0,0,0,2.64.23l.23,0a2.68,2.68,0,0,0,.73-.24,1.77,1.77,0,0,0,.55-.39l5.34-5.3a.56.56,0,0,0,.2-.5c0-.09-.1-.26-.42-.46l-7.69-4.52A1,1,0,0,0,29,26a1.18,1.18,0,0,0-.84.32L26,28.58a1.83,1.83,0,0,1-.76.45,2,2,0,0,1-.65.12l-.24,0-.5-.1A7.13,7.13,0,0,1,22,28.34a19.24,19.24,0,0,1-2.49-1.59,27.77,27.77,0,0,1-3.34-3,26.93,26.93,0,0,1-2.94-3.3A18.57,18.57,0,0,1,11.7,18a8.26,8.26,0,0,1-.83-2.23l0-.23a2.17,2.17,0,0,1,.13-.7,1.88,1.88,0,0,1,.43-.73l2-2a1.23,1.23,0,0,0,.34-.65.69.69,0,0,0-.07-.52L9.37,2.85A1.65,1.65,0,0,0,9,2.54c-.09-.07-.25-.16-.55.14L3.21,8a1.85,1.85,0,0,0-.43.59A2.65,2.65,0,0,0,2.54,9.27ZM24.17,26.82h0Z"/></g></g></svg>